<svg xmlns="http://www.w3.org/2000/svg" xmlnsSvgjs="http://svgjs.com/svgjs" xmlnsXlink="http://www.w3.org/1999/xlink" width="288" height="288"><svg xmlns="http://www.w3.org/2000/svg" width="288" height="288" enable-background="new 0 0 495.1 107.9" viewBox="0 0 495.1 107.9"><linearGradient id="a" x1="-3.095" x2="102.198" y1="56.061" y2="56.061" gradientTransform="matrix(1 0 0 -1 0 110)" gradientUnits="userSpaceOnUse"><stop class="stopColor7658c2 svgShape" offset="0" stop-color="#7658c2"/><stop class="stopColor785dc7 svgShape" offset=".038" stop-color="#785dc7"/><stop class="stopColor8175de svgShape" offset=".244" stop-color="#8175de"/><stop class="stopColor8886ef svgShape" offset=".463" stop-color="#8886ef"/><stop class="stopColor8c90f9 svgShape" offset=".702" stop-color="#8c90f9"/><stop class="stopColor8d93fc svgShape" offset="1" stop-color="#8d93fc"/></linearGradient><path fill="url(#a)" d="M86.5,49.9C85,51.1,79.4,49,78,48.4c-2.8-1.2-5.3-3.2-7.1-5.8c-2.2-3.2-3.3-7-5.3-10.4		c-4.7-8.1-13.7-12.6-22.2-16.5S25.7,7.8,20.5,0c-4.8,8.1-4.5,18.9,0.6,26.7C10.5,33.5,1.7,44.4,0.3,56.9
		c-1.7,15.3,4.5,33.5,21,43.6c11.9,7.3,25.6,8.7,38.6,6.3C73,104.4,84.5,96.5,92,85.6c1.1-1.6,2.1-3.3,3-5
		c4.3-8.2,6.2-17.5,6.1-26.7C100.9,13.7,56.3,5.6,50.5,5.6c0,0,34,7.9,39.1,32.1c3.2,15.4-1.7,29-5.8,36.9
		c-3.2,6.3-8.7,11.2-15.3,13.5c-7.7,2.7-16.5,0.4-21-6.7c-2.6-4.1-3.6-10.3-1.4-14.9c1.9-3.9,6-5.8,10.1-6.5c0,0,5.5-0.6,10.1,0.5
		c0,0-18.4-12.2-31.3,5.3c-7.3,9.9-4.6,25.3,8.6,32.5c7.4,4.1,16.4,4.2,16.4,4.2s9-0.2,10.1-0.5c-8.8,2.7-18.4,5.2-27.3,2.8
		c-14.4-3.8-24-14.1-27-27.5c-2.2-10,0.7-19.2,6.8-27.1c6-7.8,19-10.1,29.5-5.5c5.7,2.5,11,6,16.9,7.8C74.9,54.3,82,54,86.5,49.9
		C86.6,49.9,86.6,49.9,86.5,49.9z"/><path d="M169.8 82.1c-2.8 0-5.3-.5-7.4-1.5-2.1-1-3.8-2.4-4.9-4.3s-1.8-4.1-1.8-6.8c0-2.9.7-5.2 2.1-7 1.4-1.8 3.4-3.2 6-4.1 2.6-.9 5.6-1.4 9.1-1.4h9v6h-9.1c-2.3 0-4.1.6-5.3 1.7s-1.8 2.5-1.8 4.3.6 3.2 1.8 4.3c1.2 1.1 3 1.7 5.3 1.7 1.4 0 2.7-.3 3.8-.8 1.2-.5 2.1-1.4 2.9-2.6.8-1.2 1.2-2.9 1.3-5l2.4 2.8c-.2 2.7-.9 5-2 6.9s-2.6 3.3-4.5 4.3C174.8 81.6 172.5 82.1 169.8 82.1zM182.4 81.1V69.5h-1.7V56.7c0-2.2-.6-3.9-1.7-5-1.1-1.1-2.8-1.7-5-1.7-1.2 0-2.6 0-4.3.1-1.7 0-3.4.1-5.1.2-1.7.1-3.2.2-4.6.3V42c1.1-.1 2.3-.2 3.7-.3s2.8-.2 4.3-.2 2.9 0 4.2 0c4 0 7.4.5 10 1.6 2.7 1.1 4.7 2.7 6 5 1.4 2.3 2 5.2 2 8.9v24.2L182.4 81.1 182.4 81.1zM212.1 36.1v-7.5H227v7.5H212.1zM217 81.1V28.6h10v52.5H217zM250 50v-7.3h25.1V50H250zM254.8 81.1V41.2c0-4.5 1.2-7.8 3.7-9.9 2.5-2.2 6.1-3.2 11-3.2h4.9v7.7h-5.6c-1.5 0-2.6.4-3.4 1.2s-1.2 1.9-1.2 3.4v40.8L254.8 81.1 254.8 81.1zM314 82.5c-3.4 0-6.3-.6-8.8-1.7s-4.6-2.7-6.2-4.6-2.9-4.1-3.7-6.5c-.8-2.4-1.2-4.8-1.2-7.3V61c0-2.6.4-5.2 1.3-7.6.8-2.4 2.1-4.6 3.7-6.5 1.7-1.9 3.7-3.4 6.2-4.5s5.3-1.7 8.6-1.7c3.5 0 6.5.7 9.2 2s4.8 3.2 6.4 5.5 2.5 5.1 2.7 8.2h-9.8c-.2-2-1.1-3.6-2.5-5s-3.5-2-6-2c-2.2 0-4 .5-5.4 1.6-1.5 1.1-2.6 2.5-3.3 4.4-.7 1.8-1.1 4-1.1 6.4 0 2.3.3 4.4 1 6.3s1.8 3.3 3.2 4.4c1.5 1.1 3.3 1.6 5.6 1.6 1.8 0 3.3-.3 4.5-.9s2.2-1.5 3-2.6c.7-1.1 1.2-2.3 1.3-3.7h9.8c-.2 3.2-1.1 5.9-2.8 8.3s-3.8 4.2-6.5 5.6C320.6 81.8 317.5 82.5 314 82.5zM374.8 82.5c-3.5 0-6.5-.6-9.1-1.7s-4.9-2.6-6.7-4.5c-1.8-1.9-3.2-4-4.1-6.4s-1.4-4.9-1.4-7.5v-1.5c0-2.7.5-5.2 1.4-7.7 1-2.4 2.4-4.6 4.2-6.5 1.8-1.9 4.1-3.4 6.8-4.5s5.6-1.6 9-1.6c3.3 0 6.3.5 8.9 1.6s4.9 2.6 6.7 4.5c1.8 1.9 3.2 4.1 4.2 6.5s1.4 5 1.4 7.7v1.5c0 2.6-.5 5.2-1.4 7.5-.9 2.4-2.3 4.5-4.1 6.4-1.8 1.9-4.1 3.4-6.7 4.5C381.3 81.9 378.2 82.5 374.8 82.5zM374.8 73.9c2.4 0 4.4-.5 6.1-1.6s3-2.5 3.8-4.4c.9-1.8 1.3-3.9 1.3-6.3 0-2.3-.5-4.5-1.4-6.3-.9-1.9-2.2-3.3-3.9-4.4s-3.7-1.6-6-1.6-4.4.5-6.1 1.6-3 2.6-3.9 4.4c-.9 1.9-1.4 4-1.4 6.3s.4 4.4 1.3 6.3c.9 1.8 2.2 3.3 3.8 4.4C370.3 73.4 372.4 73.9 374.8 73.9zM416.8 49.5V42h15.5v7.5H416.8zM425.9 37.4c-2 0-3.4-.5-4.4-1.5s-1.4-2.3-1.4-4c0-1.6.5-2.9 1.4-3.9s2.4-1.5 4.4-1.5 3.4.5 4.3 1.5 1.4 2.3 1.4 3.9c0 1.6-.5 2.9-1.4 4C429.3 36.9 427.9 37.4 425.9 37.4zM422.2 81.1v-39h10v39H422.2zM459.2 81.1v-39h7.9v16.8h-.7c0-4 .5-7.3 1.6-10s2.6-4.7 4.7-6 4.7-2 7.8-2h.4c4.6 0 8.2 1.5 10.6 4.5s3.6 7.5 3.6 13.4v22.4h-10V57.9c0-2.4-.7-4.3-2.1-5.8s-3.3-2.2-5.6-2.2c-2.4 0-4.4.8-5.9 2.3s-2.3 3.5-2.3 6v22.9H459.2z" class="colorfff svgShape"/></svg></svg>