<svg width="128" height="24" viewBox="0 0 128 24" fill="none" xmlns="http://www.w3.org/2000/svg">
<g clip-path="url(#clip0_380_2240)">
<path d="M0 7.89629H1.39223C1.47178 9.24273 2.26734 10.0796 3.9884 10.0796C5.58482 10.0796 6.50767 9.44658 6.50767 8.1806C6.50767 7.10505 5.89774 6.63031 4.70705 6.3755L3.11063 6.02682C1.37632 5.64864 0.376564 4.73134 0.376564 3.03889C0.376564 1.24989 1.73697 0 4.00696 0C6.1974 0 7.73017 1.33035 7.74608 3.29101H6.35386C6.29021 2.08941 5.50791 1.29548 3.97514 1.29548C2.67573 1.29548 1.7847 1.8641 1.7847 3.03621C1.7847 3.93742 2.33364 4.41216 3.48985 4.68306L4.97754 5.03174C6.85506 5.4743 7.93437 6.36209 7.93437 8.1806C7.93437 10.16 6.36977 11.3616 3.99105 11.3616C1.33123 11.3643 0.0636446 9.98569 0 7.89629Z" fill="black"/>
<path d="M17.8842 0.142212H24.6119V1.44038H19.2923V4.86014H24.1266V6.1583H19.2923V9.92406H24.6119V11.2222H17.8842V0.142212Z" fill="black"/>
<path d="M34.6412 0.142212H38.8179C40.8519 0.142212 42.1354 1.23385 42.1354 3.11673C42.1354 5.20614 40.8519 6.17172 38.8179 6.17172H36.4551L42.7135 11.2195H40.4753L36.0149 7.53157V11.2195H34.6385V0.142212H34.6412ZM38.741 4.87355C39.9158 4.87355 40.714 4.46318 40.714 3.13282C40.714 1.83466 39.9158 1.40819 38.741 1.40819H36.0175V4.87355H38.741Z" fill="black"/>
<path d="M52.3503 0.142212H59.0781V1.44038H53.7585V4.86014H58.5928V6.1583H53.7585V9.92406H59.0781V11.2222H52.3503V0.142212Z" fill="black"/>
<path d="M69.1075 0.142212H71.7514L75.9918 10.9031V0.142212H77.3681V11.2195H74.6287L70.4839 0.539172V11.2222H69.1075V0.142212Z" fill="black"/>
<path d="M87.5538 9.90797H89.8371V1.45647H87.5538V0.142212H93.5311V1.45647H91.2452V9.90797H93.5311V11.2222H87.5538V9.90797Z" fill="black"/>
<path d="M105.923 1.45647H102.699V0.142212H110.553V1.45647H107.329V11.2222H105.921V1.45647H105.923Z" fill="black"/>
<path d="M122.853 6.15562H122.32L119.098 0.142212H120.63L123.571 5.76134L126.496 0.142212H128L124.791 6.15562H124.258V11.2195H122.85V6.15562H122.853Z" fill="black"/>
<path d="M23.8641 22.5972C23.522 22.5972 23.2276 22.5274 22.9863 22.3853C22.7423 22.2431 22.5461 22.0527 22.3923 21.8113C22.2411 21.5699 22.1297 21.299 22.0608 20.9986C21.9918 20.6982 21.9547 20.3897 21.9547 20.0759C21.9547 19.7567 21.9918 19.4483 22.0661 19.1479C22.1403 18.8475 22.257 18.5766 22.4108 18.3379C22.5646 18.0992 22.7635 17.9087 23.0048 17.7666C23.2462 17.6244 23.5299 17.5547 23.8614 17.5547C24.1425 17.5547 24.3759 17.5949 24.5588 17.6727C24.7445 17.7505 24.8956 17.8551 25.0123 17.9785C25.129 18.1045 25.2245 18.236 25.2987 18.3727L24.9778 18.5471C24.9089 18.4344 24.8293 18.3298 24.7365 18.2333C24.6437 18.1367 24.5297 18.0563 24.3891 17.9972C24.2486 17.9382 24.0735 17.9087 23.8614 17.9087C23.5936 17.9087 23.3655 17.9704 23.1746 18.0938C22.9836 18.2172 22.8245 18.3835 22.7025 18.59C22.5806 18.7965 22.4877 19.0299 22.4294 19.2874C22.3711 19.5449 22.3419 19.8104 22.3419 20.0786C22.3419 20.3495 22.3711 20.615 22.4267 20.8752C22.4824 21.1354 22.5726 21.366 22.6946 21.5726C22.8166 21.7791 22.973 21.9427 23.1666 22.0634C23.3602 22.1841 23.5936 22.2458 23.8667 22.2458C24.1717 22.2458 24.4183 22.1761 24.6039 22.0366C24.7896 21.8971 24.9301 21.7362 25.0256 21.5511L25.3624 21.6799C25.2881 21.8408 25.1847 21.991 25.0547 22.1305C24.9221 22.2699 24.7577 22.3853 24.5641 22.4711C24.3653 22.5542 24.1319 22.5972 23.8641 22.5972Z" fill="black"/>
<path d="M27.6933 22.5972C27.2451 22.5972 26.8924 22.4309 26.6325 22.0957C26.3727 21.7631 26.2454 21.3071 26.2454 20.7331C26.2454 20.3522 26.3037 20.0223 26.423 19.7407C26.5424 19.4618 26.7094 19.2445 26.9242 19.0916C27.139 18.9387 27.3963 18.8636 27.6933 18.8636C27.9929 18.8636 28.2502 18.9387 28.465 19.0889C28.6798 19.2391 28.8468 19.4537 28.9662 19.7327C29.0855 20.0116 29.1412 20.3442 29.1412 20.7278C29.1412 21.1086 29.0829 21.4385 28.9635 21.7202C28.8442 21.9991 28.6771 22.2164 28.4623 22.3692C28.2475 22.5221 27.9903 22.5972 27.6933 22.5972ZM27.6933 22.2432C28.0301 22.2432 28.2899 22.1091 28.4782 21.8435C28.6665 21.578 28.7593 21.2052 28.7593 20.7304C28.7593 20.2503 28.6665 19.8775 28.4809 19.6147C28.2952 19.3518 28.0327 19.2204 27.6959 19.2204C27.3538 19.2204 27.0913 19.3518 26.9057 19.612C26.7227 19.8721 26.6299 20.2476 26.6299 20.7358C26.6299 21.2159 26.7227 21.586 26.9083 21.8489C27.094 22.1117 27.3565 22.2432 27.6933 22.2432Z" fill="black"/>
<path d="M30.1622 22.5141V18.9522H30.5282V19.4537C30.6237 19.266 30.7562 19.1211 30.926 19.0192C31.0957 18.9173 31.284 18.8663 31.4935 18.8663C31.7348 18.8663 31.939 18.9307 32.106 19.0621C32.2731 19.1936 32.3898 19.3786 32.4561 19.6227C32.5489 19.3867 32.6868 19.2016 32.8724 19.0675C33.0581 18.9334 33.2702 18.8663 33.5036 18.8663C33.8563 18.8663 34.1347 18.9763 34.3416 19.1989C34.5484 19.4215 34.6518 19.7219 34.6518 20.1028V22.5114H34.2859V20.2986C34.2859 19.9419 34.2169 19.671 34.0817 19.4859C33.9438 19.3035 33.7396 19.2097 33.4664 19.2097C33.2967 19.2097 33.1456 19.2552 33.013 19.3491C32.8804 19.443 32.777 19.5717 32.7027 19.7354C32.6285 19.899 32.5913 20.0894 32.5913 20.304V22.5114H32.2254V20.2986C32.2254 19.9392 32.1564 19.6656 32.0212 19.4832C31.8859 19.3008 31.6844 19.2097 31.4139 19.2097C31.1355 19.2097 30.918 19.3089 30.7616 19.5047C30.6051 19.7005 30.5282 19.9767 30.5282 20.3281V22.5114H30.1622V22.5141Z" fill="black"/>
<path d="M35.9724 22.5141V18.9522H36.3384V19.4537C36.4338 19.266 36.5664 19.1211 36.7361 19.0192C36.9059 18.9173 37.0942 18.8663 37.3036 18.8663C37.545 18.8663 37.7492 18.9307 37.9162 19.0621C38.0833 19.1936 38.2 19.3786 38.2663 19.6227C38.3591 19.3867 38.497 19.2016 38.6826 19.0675C38.8682 18.9334 39.0804 18.8663 39.3138 18.8663C39.6665 18.8663 39.9449 18.9763 40.1517 19.1989C40.3586 19.4215 40.462 19.7219 40.462 20.1028V22.5114H40.0961V20.2986C40.0961 19.9419 40.0271 19.671 39.8919 19.4859C39.754 19.3035 39.5498 19.2097 39.2766 19.2097C39.1069 19.2097 38.9558 19.2552 38.8232 19.3491C38.6906 19.443 38.5871 19.5717 38.5129 19.7354C38.4386 19.899 38.4015 20.0894 38.4015 20.304V22.5114H38.0356V20.2986C38.0356 19.9392 37.9666 19.6656 37.8314 19.4832C37.6961 19.3008 37.4946 19.2097 37.2241 19.2097C36.9456 19.2097 36.7282 19.3089 36.5717 19.5047C36.4153 19.7005 36.3384 19.9767 36.3384 20.3281V22.5114H35.9724V22.5141Z" fill="black"/>
<path d="M42.8514 22.5972C42.4536 22.5972 42.1566 22.4738 41.9604 22.2217C41.7641 21.9723 41.666 21.5941 41.666 21.0871V18.9495H42.032V21.1542C42.032 21.519 42.1036 21.7952 42.2468 21.9803C42.39 22.1654 42.6021 22.2566 42.8885 22.2566C43.2014 22.2566 43.4375 22.1546 43.5992 21.9508C43.761 21.747 43.8405 21.4466 43.8405 21.055V18.9521H44.2065V22.5167H43.8405V22.0044C43.7371 22.1976 43.6019 22.3451 43.4348 22.447C43.2677 22.5462 43.0742 22.5972 42.8514 22.5972Z" fill="black"/>
<path d="M45.5006 22.5141V18.9522H45.8666V19.4993C45.9567 19.3008 46.0893 19.148 46.267 19.0353C46.4447 18.9227 46.6436 18.869 46.8637 18.869C47.2561 18.869 47.5505 18.9951 47.7467 19.2445C47.943 19.4966 48.0384 19.8748 48.0384 20.3818V22.5168H47.6725V20.3174C47.6725 19.9526 47.6009 19.6764 47.4577 19.494C47.3145 19.3089 47.0997 19.2177 46.8186 19.2177C46.5057 19.2177 46.2696 19.3196 46.1079 19.5208C45.9461 19.7219 45.8666 20.0223 45.8666 20.4166V22.5194H45.5006V22.5141Z" fill="black"/>
<path d="M49.4705 18.1662C49.3989 18.1662 49.3379 18.1421 49.2875 18.0911C49.2371 18.0401 49.2106 17.9811 49.2106 17.9087C49.2106 17.8309 49.2371 17.7666 49.2875 17.7129C49.3379 17.6593 49.3989 17.6324 49.4705 17.6324C49.5474 17.6324 49.6083 17.6593 49.6561 17.7129C49.7038 17.7666 49.7277 17.8309 49.7277 17.9087C49.7277 17.9811 49.7038 18.0428 49.6561 18.0911C49.6083 18.1421 49.5474 18.1662 49.4705 18.1662ZM49.2875 22.514V18.9521H49.6534V22.5167H49.2875V22.514Z" fill="black"/>
<path d="M51.812 22.5972C51.5892 22.5972 51.4195 22.5274 51.3028 22.388C51.1861 22.2485 51.1278 22.0447 51.1278 21.7738V19.282H50.5391V18.9494H51.1278V17.6593L51.4937 17.4769V18.9494H52.3821V19.282H51.4937V21.6852C51.4937 21.8864 51.5256 22.0286 51.5892 22.1171C51.6528 22.2056 51.7563 22.2485 51.9021 22.2485C52.0718 22.2485 52.2469 22.1895 52.4219 22.0742L52.3795 22.4497C52.2999 22.4953 52.2097 22.5328 52.109 22.5596C52.0082 22.5864 51.9101 22.5972 51.812 22.5972Z" fill="black"/>
<path d="M53.6816 23.8686L54.212 22.4282L52.9285 18.9521H53.2944L54.2677 21.6343C54.2915 21.696 54.3127 21.7523 54.3313 21.8113C54.3499 21.8677 54.3711 21.9267 54.387 21.9884C54.4082 21.9267 54.4268 21.8703 54.4453 21.8113C54.4639 21.755 54.4851 21.696 54.5063 21.6343L55.4822 18.9521H55.8508L54.0476 23.8686H53.6816Z" fill="black"/>
<path d="M59.0595 22.514V17.9919H57.7283V17.6324H60.7593V17.9919H59.4255V22.514H59.0595Z" fill="black"/>
<path d="M61.1412 22.5141V18.9522H61.5072V19.6147C61.6 19.3786 61.7326 19.1936 61.8997 19.0648C62.0667 18.9361 62.2577 18.869 62.4725 18.869C62.6846 18.869 62.849 18.92 62.9684 19.0246L62.91 19.384C62.8464 19.3384 62.7721 19.3062 62.6899 19.2874C62.6077 19.2687 62.5229 19.2553 62.4327 19.2553C62.2497 19.2553 62.088 19.3089 61.9474 19.4162C61.8095 19.5235 61.7008 19.6737 61.6212 19.8668C61.5443 20.0599 61.5045 20.2825 61.5045 20.532V22.5168H61.1412V22.5141Z" fill="black"/>
<path d="M64.5489 22.5972C64.1856 22.5972 63.9018 22.4926 63.6976 22.2861C63.4934 22.0769 63.39 21.7926 63.39 21.4278C63.39 21.1918 63.4404 20.9906 63.5412 20.8189C63.6419 20.6473 63.7851 20.5159 63.9708 20.422C64.1564 20.3281 64.3765 20.2798 64.6284 20.2798C64.8008 20.2798 64.9705 20.304 65.1349 20.3549C65.2994 20.4059 65.4638 20.481 65.6202 20.5856V20.1457C65.6202 19.8239 65.5539 19.5852 65.4187 19.4296C65.2834 19.274 65.0766 19.1962 64.7929 19.1962C64.6284 19.1962 64.4561 19.2257 64.2731 19.2874C64.0901 19.3491 63.9124 19.4323 63.7401 19.5422L63.634 19.2284C63.8249 19.1131 64.0238 19.0219 64.2307 18.9602C64.4375 18.8985 64.6364 18.8663 64.83 18.8663C65.2012 18.8663 65.485 18.9683 65.6812 19.1721C65.8775 19.3759 65.9729 19.6737 65.9729 20.0626V22.5141H65.6176V22.034C65.4797 22.2137 65.3153 22.3531 65.1243 22.4497C64.9334 22.5463 64.7478 22.5972 64.5489 22.5972ZM64.5781 22.2673C64.769 22.2673 64.952 22.2137 65.1323 22.1091C65.31 22.0045 65.4744 21.8489 65.6282 21.6424V20.9209C65.4797 20.8243 65.3206 20.7465 65.1535 20.6929C64.9864 20.6392 64.822 20.6124 64.6629 20.6124C64.3924 20.6124 64.1723 20.6875 64.0079 20.835C63.8435 20.9826 63.7586 21.181 63.7586 21.4305C63.7586 21.6853 63.8329 21.8891 63.984 22.042C64.1299 22.1922 64.3288 22.2673 64.5781 22.2673Z" fill="black"/>
<path d="M68.3809 22.5972C67.9592 22.5972 67.6251 22.4282 67.3785 22.0929C67.1292 21.755 67.0072 21.3017 67.0072 20.7304C67.0072 20.3415 67.0629 20.0089 67.1769 19.7299C67.291 19.451 67.4501 19.2391 67.6622 19.0889C67.8744 18.9387 68.1263 18.8663 68.4233 18.8663C68.8105 18.8663 69.1313 19.0379 69.3859 19.3813V17.654L69.7519 17.4769V22.5113H69.3859V22.0795C69.1234 22.4255 68.7893 22.5972 68.3809 22.5972ZM68.4445 22.2431C68.6248 22.2431 68.7972 22.1841 68.9696 22.0661C69.1393 21.9481 69.2772 21.7925 69.3806 21.594V19.8506C69.2639 19.6548 69.1207 19.502 68.9563 19.3893C68.7919 19.2767 68.6195 19.2203 68.4472 19.2203C68.1104 19.2203 67.8478 19.3518 67.6649 19.6119C67.4819 19.8721 67.3891 20.2449 67.3891 20.7304C67.3891 21.0254 67.4342 21.2856 67.5243 21.5136C67.6145 21.7416 67.7391 21.9186 67.8982 22.05C68.0547 22.1761 68.2377 22.2431 68.4445 22.2431Z" fill="black"/>
<path d="M71.213 18.1662C71.1414 18.1662 71.0804 18.1421 71.03 18.0911C70.9796 18.0401 70.9531 17.9811 70.9531 17.9087C70.9531 17.8309 70.9796 17.7666 71.03 17.7129C71.0804 17.6593 71.1414 17.6324 71.213 17.6324C71.2899 17.6324 71.3509 17.6593 71.3986 17.7129C71.4464 17.7666 71.4702 17.8309 71.4702 17.9087C71.4702 17.9811 71.4464 18.0428 71.3986 18.0911C71.3509 18.1421 71.2899 18.1662 71.213 18.1662ZM71.03 22.514V18.9521H71.396V22.5167H71.03V22.514Z" fill="black"/>
<path d="M72.6848 22.5141V18.9522H73.0508V19.4993C73.1409 19.3008 73.2735 19.148 73.4512 19.0353C73.6289 18.9227 73.8278 18.869 74.0479 18.869C74.4403 18.869 74.7347 18.9951 74.9309 19.2445C75.1272 19.4966 75.2226 19.8748 75.2226 20.3818V22.5168H74.8567V20.3174C74.8567 19.9526 74.7851 19.6764 74.6419 19.494C74.4987 19.3089 74.2839 19.2177 74.0028 19.2177C73.6899 19.2177 73.4539 19.3196 73.2921 19.5208C73.1303 19.7219 73.0508 20.0223 73.0508 20.4166V22.5194H72.6848V22.5141Z" fill="black"/>
<path d="M77.5059 24L77.3229 23.6942C77.6464 23.6755 77.9116 23.6272 78.1185 23.5494C78.3253 23.4716 78.4791 23.359 78.5773 23.2088C78.6754 23.0612 78.7258 22.8735 78.7258 22.6482V22.0098C78.511 22.4014 78.1768 22.5999 77.7181 22.5999C77.4396 22.5999 77.1983 22.5221 76.9914 22.3666C76.7846 22.211 76.6228 21.9937 76.5088 21.7121C76.3948 21.4332 76.3364 21.1059 76.3364 20.7304C76.3364 20.3523 76.3948 20.0223 76.5088 19.7434C76.6228 19.4645 76.7872 19.2499 76.9994 19.097C77.2115 18.9441 77.4582 18.869 77.7446 18.869C77.9488 18.869 78.1397 18.9173 78.3174 19.0112C78.495 19.1077 78.6303 19.2338 78.7284 19.3947V18.9522H79.0944V22.5945C79.0944 22.8145 79.0625 23.0103 78.9962 23.1766C78.93 23.3429 78.8318 23.485 78.7019 23.603C78.5719 23.7211 78.4075 23.8096 78.2086 23.8739C78.0071 23.9383 77.7737 23.9812 77.5059 24ZM77.7631 22.2432C77.9541 22.2432 78.137 22.1815 78.3094 22.0554C78.4818 21.9321 78.6223 21.7658 78.7258 21.5619V19.8319C78.625 19.6442 78.4871 19.494 78.3174 19.384C78.145 19.274 77.9673 19.2177 77.779 19.2177C77.4369 19.2177 77.1744 19.3464 76.9941 19.6066C76.8138 19.8668 76.7209 20.2396 76.7209 20.7278C76.7209 21.0282 76.766 21.291 76.8535 21.519C76.9411 21.747 77.063 21.924 77.2195 22.0501C77.376 22.1788 77.5563 22.2432 77.7631 22.2432Z" fill="black"/>
<path d="M81.9238 22.514V17.6324H82.2871L84.6526 21.4921C84.6871 21.5484 84.7215 21.6047 84.756 21.6637C84.7905 21.7227 84.825 21.7844 84.8594 21.8461C84.8594 21.7871 84.8594 21.7254 84.8568 21.6664C84.8568 21.6074 84.8541 21.5484 84.8541 21.4894V17.6324H85.2201V22.514H84.8647L82.494 18.6517C82.4595 18.5953 82.425 18.539 82.3879 18.4773C82.3534 18.4156 82.319 18.3566 82.2871 18.3003C82.2871 18.3566 82.2871 18.413 82.2898 18.4746C82.2898 18.5363 82.2924 18.5953 82.2924 18.6517V22.514H81.9238Z" fill="black"/>
<path d="M87.8216 22.5972C87.514 22.5972 87.2514 22.5194 87.0313 22.3666C86.8139 22.211 86.6468 21.9937 86.5301 21.7148C86.4134 21.4358 86.3551 21.1059 86.3551 20.7304C86.3551 20.3362 86.4187 19.9982 86.5434 19.7219C86.668 19.443 86.8404 19.2338 87.0605 19.0863C87.2806 18.9414 87.5325 18.869 87.8216 18.869C88.0762 18.869 88.3042 18.9334 88.5058 19.0595C88.7073 19.1855 88.8664 19.384 88.9804 19.6495C89.0971 19.9151 89.1555 20.2584 89.1555 20.6768C89.1555 20.7036 89.1555 20.7358 89.1528 20.768C89.1528 20.8002 89.1502 20.835 89.1475 20.8699H86.737C86.7555 21.1408 86.8033 21.3822 86.8828 21.5914C86.9624 21.8006 87.0791 21.9642 87.2355 22.0823C87.3893 22.2003 87.5909 22.2593 87.8375 22.2593C87.978 22.2593 88.1159 22.2351 88.2565 22.1869C88.397 22.1386 88.527 22.0608 88.649 21.9535L88.8638 22.2056C88.7365 22.321 88.5853 22.4175 88.4023 22.4926C88.2194 22.5677 88.0311 22.5972 87.8216 22.5972ZM86.7396 20.5346H88.7816C88.7816 20.2932 88.7471 20.0706 88.6808 19.8695C88.6145 19.6683 88.5084 19.5047 88.3679 19.384C88.2273 19.2633 88.0443 19.2016 87.8242 19.2016C87.5299 19.2016 87.2832 19.3062 87.0791 19.5181C86.8749 19.7273 86.7635 20.0679 86.7396 20.5346Z" fill="black"/>
<path d="M90.9641 22.5972C90.7413 22.5972 90.5716 22.5274 90.4549 22.388C90.3382 22.2485 90.2799 22.0447 90.2799 21.7738V19.282H89.6912V18.9494H90.2799V17.6593L90.6458 17.4769V18.9494H91.5342V19.282H90.6458V21.6852C90.6458 21.8864 90.6777 22.0286 90.7413 22.1171C90.8049 22.2056 90.9084 22.2485 91.0542 22.2485C91.2239 22.2485 91.399 22.1895 91.574 22.0742L91.5316 22.4497C91.452 22.4953 91.3618 22.5328 91.2611 22.5596C91.1603 22.5864 91.0622 22.5972 90.9641 22.5972Z" fill="black"/>
<path d="M92.9901 22.5141L92.0938 18.9495H92.4571L93.0882 21.578C93.1015 21.637 93.1147 21.696 93.1306 21.7577C93.1465 21.8194 93.1571 21.8811 93.1678 21.9401C93.1837 21.8784 93.1996 21.8167 93.2181 21.755C93.2367 21.696 93.2526 21.6343 93.2685 21.578L94.0482 18.9495H94.3346L95.1169 21.578C95.1354 21.6397 95.1513 21.6987 95.1673 21.7604C95.1832 21.8194 95.1991 21.8837 95.215 21.9454C95.2282 21.8837 95.2415 21.8247 95.2548 21.7631C95.268 21.7014 95.2813 21.6397 95.2945 21.5807L95.923 18.9521H96.289L95.39 22.5167H95.0903L94.3319 20.0652C94.3081 19.9901 94.2868 19.9124 94.2603 19.8292C94.2365 19.7461 94.2126 19.6656 94.1887 19.5878C94.1675 19.6656 94.1463 19.7487 94.1224 19.8292C94.0986 19.9097 94.0747 19.9901 94.0508 20.0652L93.2924 22.5167H92.9901V22.5141Z" fill="black"/>
<path d="M98.3708 22.5972C97.9226 22.5972 97.5699 22.4309 97.31 22.0957C97.0528 21.7631 96.9229 21.3071 96.9229 20.7331C96.9229 20.3522 96.9812 20.0223 97.1005 19.7407C97.2199 19.4618 97.3869 19.2445 97.6017 19.0916C97.8165 18.9387 98.0738 18.8636 98.3708 18.8636C98.6704 18.8636 98.9277 18.9387 99.1425 19.0889C99.3573 19.2391 99.5243 19.4537 99.641 19.7327C99.7577 20.0116 99.816 20.3442 99.816 20.7278C99.816 21.1086 99.7577 21.4385 99.6384 21.7202C99.519 21.9991 99.352 22.2164 99.1372 22.3692C98.925 22.5221 98.6678 22.5972 98.3708 22.5972ZM98.3708 22.2432C98.7076 22.2432 98.9674 22.1091 99.1557 21.8435C99.344 21.578 99.4368 21.2052 99.4368 20.7304C99.4368 20.2503 99.344 19.8775 99.1584 19.6147C98.9727 19.3518 98.7102 19.2204 98.3734 19.2204C98.0313 19.2204 97.7688 19.3518 97.5832 19.612C97.4002 19.8721 97.3074 20.2476 97.3074 20.7358C97.3074 21.2159 97.4002 21.586 97.5858 21.8489C97.7714 22.1117 98.034 22.2432 98.3708 22.2432Z" fill="black"/>
<path d="M100.84 22.5141V18.9522H101.206V19.6147C101.301 19.3786 101.431 19.1936 101.598 19.0648C101.765 18.9334 101.956 18.869 102.173 18.869C102.386 18.869 102.55 18.92 102.669 19.0246L102.611 19.384C102.547 19.3384 102.473 19.3062 102.391 19.2874C102.309 19.2687 102.224 19.2553 102.134 19.2553C101.951 19.2553 101.789 19.3089 101.648 19.4162C101.508 19.5235 101.402 19.6737 101.322 19.8668C101.245 20.0599 101.206 20.2825 101.206 20.532V22.5168H100.84V22.5141Z" fill="black"/>
<path d="M103.377 22.514V17.6566L103.743 17.4796V20.4702L105.125 18.9494H105.571L104.674 19.9231L105.995 22.514H105.589L104.417 20.202L103.743 20.9208V22.514H103.377Z" fill="black"/>
</g>
<defs>
<clipPath id="clip0_380_2240">
<rect width="128" height="24" fill="white"/>
</clipPath>
</defs>
</svg>
