<svg width="169" height="31" viewBox="0 0 169 31" fill="none" xmlns="http://www.w3.org/2000/svg">
<g clip-path="url(#clip0_43_280)">
<path d="M0 10.1994H1.83817C1.94321 11.9385 2.9936 13.0194 5.26593 13.0194C7.3737 13.0194 8.59215 12.2018 8.59215 10.5666C8.59215 9.17736 7.78686 8.56415 6.21478 8.23502L4.10701 7.78464C1.81717 7.29615 0.497182 6.11131 0.497182 3.92523C0.497182 1.61444 2.29334 0 5.29044 0C8.1825 0 10.2062 1.71837 10.2273 4.25089H8.38908C8.30505 2.69882 7.27217 1.67333 5.24843 1.67333C3.5328 1.67333 2.35636 2.4078 2.35636 3.92177C2.35636 5.08583 3.08113 5.69904 4.60769 6.04895L6.57191 6.49933C9.05082 7.07096 10.4758 8.2177 10.4758 10.5666C10.4758 13.1234 8.41009 14.6755 5.26943 14.6755C1.75764 14.6789 0.0840308 12.8982 0 10.1994Z" fill="black"/>
<path d="M23.6127 0.183594H32.4954V1.86039H25.4719V6.27758H31.8547V7.95438H25.4719V12.8185H32.4954V14.4953H23.6127V0.183594Z" fill="black"/>
<path d="M45.7373 0.183594H51.2518C53.9373 0.183594 55.6319 1.59363 55.6319 4.02568C55.6319 6.7245 53.9373 7.9717 51.2518 7.9717H48.1321L56.3952 14.4918H53.4401L47.5509 9.72818V14.4918H45.7338V0.183594H45.7373ZM51.1503 6.2949C52.7013 6.2949 53.7552 5.76484 53.7552 4.04647C53.7552 2.36967 52.7013 1.81882 51.1503 1.81882H47.5544V6.2949H51.1503Z" fill="black"/>
<path d="M69.1189 0.183594H78.0016V1.86039H70.978V6.27758H77.3609V7.95438H70.978V12.8185H78.0016V14.4953H69.1189V0.183594Z" fill="black"/>
<path d="M91.2435 0.183594H94.7343L100.333 14.083V0.183594H102.15V14.4918H98.5331L93.0606 0.696334V14.4953H91.2435V0.183594Z" fill="black"/>
<path d="M115.598 12.7977H118.613V1.88118H115.598V0.183594H123.49V1.88118H120.472V12.7977H123.49V14.4953H115.598V12.7977Z" fill="black"/>
<path d="M139.852 1.88118H135.594V0.183594H145.965V1.88118H141.707V14.4953H139.848V1.88118H139.852Z" fill="black"/>
<path d="M162.204 7.95092H161.5L157.246 0.183594H159.27L163.153 7.44164L167.015 0.183594H169L164.763 7.95092H164.06V14.4918H162.201V7.95092H162.204Z" fill="black"/>
<path d="M31.508 29.188C31.0564 29.188 30.6677 29.0979 30.3491 28.9143C30.027 28.7307 29.7679 28.4847 29.5648 28.1729C29.3653 27.8611 29.2182 27.5112 29.1272 27.1232C29.0361 26.7352 28.9871 26.3367 28.9871 25.9314C28.9871 25.5191 29.0361 25.1207 29.1342 24.7327C29.2322 24.3447 29.3863 23.9948 29.5893 23.6864C29.7924 23.3781 30.055 23.1321 30.3736 22.9485C30.6922 22.7649 31.0669 22.6748 31.5045 22.6748C31.8757 22.6748 32.1838 22.7268 32.4254 22.8272C32.6705 22.9277 32.87 23.0628 33.0241 23.2222C33.1782 23.385 33.3042 23.5548 33.4022 23.7315L32.9786 23.9567C32.8876 23.8111 32.7825 23.676 32.66 23.5513C32.5374 23.4266 32.3869 23.3227 32.2013 23.2464C32.0157 23.1702 31.7846 23.1321 31.5045 23.1321C31.1509 23.1321 30.8498 23.2118 30.5977 23.3712C30.3456 23.5305 30.1355 23.7453 29.9745 24.0121C29.8134 24.2789 29.6909 24.5803 29.6139 24.9128C29.5368 25.2454 29.4983 25.5884 29.4983 25.9349C29.4983 26.2848 29.5368 26.6278 29.6103 26.9638C29.6839 27.2999 29.8029 27.5978 29.964 27.8646C30.125 28.1313 30.3316 28.3427 30.5872 28.4986C30.8428 28.6545 31.1509 28.7341 31.5115 28.7341C31.9142 28.7341 32.2398 28.6441 32.4849 28.4639C32.73 28.2838 32.9156 28.0759 33.0416 27.8369L33.4863 28.0031C33.3882 28.211 33.2517 28.405 33.0801 28.5852C32.9051 28.7653 32.688 28.9143 32.4324 29.0252C32.1698 29.1326 31.8617 29.188 31.508 29.188Z" fill="black"/>
<path d="M36.5639 29.1878C35.9722 29.1878 35.5065 28.973 35.1634 28.5399C34.8203 28.1103 34.6522 27.5214 34.6522 26.78C34.6522 26.288 34.7292 25.8619 34.8868 25.4981C35.0443 25.1378 35.2649 24.8572 35.5485 24.6597C35.8321 24.4622 36.1717 24.3652 36.5639 24.3652C36.9595 24.3652 37.2992 24.4622 37.5828 24.6562C37.8664 24.8503 38.087 25.1274 38.2445 25.4877C38.4021 25.848 38.4756 26.2776 38.4756 26.773C38.4756 27.265 38.3986 27.6911 38.241 28.0549C38.0835 28.4152 37.8629 28.6958 37.5793 28.8933C37.2957 29.0908 36.956 29.1878 36.5639 29.1878ZM36.5639 28.7305C37.0086 28.7305 37.3517 28.5572 37.6003 28.2143C37.8489 27.8713 37.9714 27.3897 37.9714 26.7765C37.9714 26.1564 37.8489 25.6748 37.6038 25.3353C37.3587 24.9958 37.0121 24.826 36.5674 24.826C36.1157 24.826 35.7691 24.9958 35.524 25.3318C35.2824 25.6679 35.1599 26.1529 35.1599 26.7834C35.1599 27.4036 35.2824 27.8817 35.5275 28.2212C35.7726 28.5607 36.1192 28.7305 36.5639 28.7305Z" fill="black"/>
<path d="M39.8236 29.0803V24.4795H40.3068V25.1274C40.4328 24.8849 40.6079 24.6978 40.832 24.5661C41.0561 24.4345 41.3047 24.3687 41.5813 24.3687C41.8999 24.3687 42.1695 24.4518 42.3901 24.6216C42.6106 24.7913 42.7647 25.0304 42.8522 25.3456C42.9748 25.0408 43.1568 24.8017 43.4019 24.6285C43.647 24.4553 43.9271 24.3687 44.2352 24.3687C44.7009 24.3687 45.0685 24.5107 45.3416 24.7982C45.6147 25.0858 45.7513 25.4738 45.7513 25.9658V29.0769H45.2681V26.2187C45.2681 25.7579 45.1771 25.408 44.9985 25.1689C44.8164 24.9334 44.5468 24.8121 44.1862 24.8121C43.9621 24.8121 43.7626 24.871 43.5875 24.9923C43.4124 25.1135 43.2759 25.2798 43.1778 25.4911C43.0798 25.7025 43.0308 25.9484 43.0308 26.2256V29.0769H42.5476V26.2187C42.5476 25.7544 42.4566 25.4011 42.278 25.1655C42.0994 24.9299 41.8333 24.8121 41.4762 24.8121C41.1086 24.8121 40.8215 24.9403 40.6149 25.1932C40.4083 25.4461 40.3068 25.8029 40.3068 26.2568V29.0769H39.8236V29.0803Z" fill="black"/>
<path d="M47.4949 29.0803V24.4795H47.9781V25.1274C48.1041 24.8849 48.2792 24.6978 48.5033 24.5661C48.7274 24.4345 48.9759 24.3687 49.2526 24.3687C49.5712 24.3687 49.8408 24.4518 50.0613 24.6216C50.2819 24.7913 50.436 25.0304 50.5235 25.3456C50.6461 25.0408 50.8281 24.8017 51.0732 24.6285C51.3183 24.4553 51.5984 24.3687 51.9065 24.3687C52.3722 24.3687 52.7398 24.5107 53.0129 24.7982C53.286 25.0858 53.4226 25.4738 53.4226 25.9658V29.0769H52.9394V26.2187C52.9394 25.7579 52.8484 25.408 52.6698 25.1689C52.4877 24.9334 52.2181 24.8121 51.8575 24.8121C51.6334 24.8121 51.4338 24.871 51.2588 24.9923C51.0837 25.1135 50.9472 25.2798 50.8491 25.4911C50.7511 25.7025 50.7021 25.9484 50.7021 26.2256V29.0769H50.2189V26.2187C50.2189 25.7544 50.1279 25.4011 49.9493 25.1655C49.7707 24.9299 49.5046 24.8121 49.1475 24.8121C48.7799 24.8121 48.4928 24.9403 48.2862 25.1932C48.0796 25.4461 47.9781 25.8029 47.9781 26.2568V29.0769H47.4949V29.0803Z" fill="black"/>
<path d="M56.5773 29.1877C56.0521 29.1877 55.6599 29.0284 55.4008 28.7027C55.1417 28.3805 55.0122 27.892 55.0122 27.2373V24.4761H55.4954V27.3239C55.4954 27.795 55.5899 28.1519 55.779 28.3909C55.968 28.63 56.2481 28.7478 56.6263 28.7478C57.0394 28.7478 57.351 28.6161 57.5646 28.3528C57.7782 28.0895 57.8832 27.7015 57.8832 27.1957V24.4795H58.3664V29.0838H57.8832V28.4221C57.7467 28.6715 57.5681 28.8621 57.3475 28.9937C57.127 29.1219 56.8714 29.1877 56.5773 29.1877Z" fill="black"/>
<path d="M60.075 29.0803V24.4795H60.5582V25.1862C60.6772 24.9298 60.8523 24.7324 61.0869 24.5869C61.3215 24.4414 61.5841 24.3721 61.8747 24.3721C62.3929 24.3721 62.7815 24.5349 63.0406 24.8571C63.2997 25.1828 63.4257 25.6712 63.4257 26.326V29.0837H62.9426V26.2429C62.9426 25.7717 62.848 25.4149 62.659 25.1793C62.4699 24.9402 62.1863 24.8225 61.8152 24.8225C61.402 24.8225 61.0904 24.9541 60.8768 25.2139C60.6632 25.4738 60.5582 25.8618 60.5582 26.3711V29.0872H60.075V29.0803Z" fill="black"/>
<path d="M65.3165 23.4648C65.2219 23.4648 65.1414 23.4336 65.0749 23.3678C65.0083 23.302 64.9733 23.2258 64.9733 23.1322C64.9733 23.0318 65.0083 22.9486 65.0749 22.8793C65.1414 22.81 65.2219 22.7754 65.3165 22.7754C65.418 22.7754 65.4985 22.81 65.5615 22.8793C65.6246 22.9486 65.6561 23.0318 65.6561 23.1322C65.6561 23.2258 65.6246 23.3055 65.5615 23.3678C65.4985 23.4336 65.418 23.4648 65.3165 23.4648ZM65.0749 29.0807V24.4799H65.558V29.0842H65.0749V29.0807Z" fill="black"/>
<path d="M68.4081 29.1879C68.114 29.1879 67.8899 29.0978 67.7358 28.9176C67.5818 28.7375 67.5048 28.4742 67.5048 28.1243V24.9058H66.7275V24.4762H67.5048V22.8098L67.9879 22.5742V24.4762H69.1609V24.9058H67.9879V28.01C67.9879 28.2698 68.03 28.4534 68.114 28.5677C68.198 28.6821 68.3346 28.7375 68.5271 28.7375C68.7512 28.7375 68.9823 28.6613 69.2134 28.5123L69.1574 28.9973C69.0523 29.0562 68.9333 29.1047 68.8002 29.1394C68.6672 29.174 68.5376 29.1879 68.4081 29.1879Z" fill="black"/>
<path d="M70.8765 30.8298L71.5767 28.9694L69.8821 24.4795H70.3653L71.6503 27.944C71.6818 28.0236 71.7098 28.0964 71.7343 28.1726C71.7588 28.2454 71.7868 28.3216 71.8078 28.4013C71.8358 28.3216 71.8603 28.2488 71.8848 28.1726C71.9094 28.0999 71.9374 28.0236 71.9654 27.944L73.2538 24.4795H73.7405L71.3597 30.8298H70.8765Z" fill="black"/>
<path d="M77.9771 29.0807V23.2396H76.2195V22.7754H80.2214V23.2396H78.4603V29.0807H77.9771Z" fill="black"/>
<path d="M80.7256 29.0803V24.4795H81.2088V25.3352C81.3313 25.0303 81.5064 24.7913 81.727 24.625C81.9475 24.4587 82.1996 24.3721 82.4832 24.3721C82.7634 24.3721 82.9804 24.4379 83.138 24.573L83.061 25.0372C82.9769 24.9784 82.8789 24.9368 82.7703 24.9125C82.6618 24.8883 82.5498 24.871 82.4307 24.871C82.1891 24.871 81.9756 24.9402 81.79 25.0788C81.6079 25.2174 81.4644 25.4114 81.3593 25.6609C81.2578 25.9103 81.2053 26.1978 81.2053 26.52V29.0837H80.7256V29.0803Z" fill="black"/>
<path d="M85.2248 29.1877C84.7451 29.1877 84.3704 29.0526 84.1008 28.7858C83.8312 28.5156 83.6947 28.1484 83.6947 27.6772C83.6947 27.3723 83.7612 27.1125 83.8943 26.8908C84.0273 26.6691 84.2164 26.4993 84.4615 26.378C84.7066 26.2568 84.9972 26.1944 85.3298 26.1944C85.5574 26.1944 85.7815 26.2256 85.9985 26.2914C86.2156 26.3573 86.4327 26.4543 86.6393 26.5894V26.0212C86.6393 25.6055 86.5517 25.2971 86.3732 25.0962C86.1946 24.8953 85.9215 24.7948 85.5469 24.7948C85.3298 24.7948 85.1022 24.8329 84.8606 24.9126C84.619 24.9923 84.3844 25.0997 84.1569 25.2417L84.0168 24.8364C84.2689 24.6874 84.5315 24.5696 84.8046 24.4899C85.0777 24.4102 85.3403 24.3687 85.5959 24.3687C86.0861 24.3687 86.4607 24.5003 86.7198 24.7636C86.9789 25.0269 87.1049 25.4115 87.1049 25.9138V29.0803H86.6358V28.4602C86.4537 28.6923 86.2366 28.8725 85.9845 28.9972C85.7324 29.1219 85.4873 29.1877 85.2248 29.1877ZM85.2633 28.7616C85.5154 28.7616 85.7569 28.6923 85.995 28.5572C86.2296 28.4221 86.4467 28.2211 86.6498 27.9544V27.0224C86.4537 26.8977 86.2436 26.7972 86.023 26.728C85.8025 26.6587 85.5854 26.624 85.3753 26.624C85.0182 26.624 84.7276 26.721 84.5105 26.9116C84.2934 27.1021 84.1814 27.3585 84.1814 27.6807C84.1814 28.0098 84.2794 28.2731 84.479 28.4706C84.6715 28.6646 84.9341 28.7616 85.2633 28.7616Z" fill="black"/>
<path d="M90.2841 29.1879C89.7274 29.1879 89.2862 28.9696 88.9606 28.5366C88.6315 28.1 88.4704 27.5145 88.4704 26.7766C88.4704 26.2743 88.544 25.8447 88.6945 25.4844C88.8451 25.1241 89.0552 24.8504 89.3353 24.6564C89.6154 24.4623 89.948 24.3688 90.3401 24.3688C90.8513 24.3688 91.275 24.5905 91.6111 25.034V22.8029L92.0943 22.5742V29.077H91.6111V28.5192C91.2645 28.9661 90.8233 29.1879 90.2841 29.1879ZM90.3681 28.7306C90.6062 28.7306 90.8338 28.6543 91.0614 28.5019C91.2855 28.3495 91.4675 28.1485 91.6041 27.8922V25.6403C91.45 25.3874 91.261 25.1899 91.0439 25.0444C90.8268 24.8989 90.5992 24.8261 90.3716 24.8261C89.927 24.8261 89.5804 24.9959 89.3388 25.3319C89.0972 25.668 88.9746 26.1495 88.9746 26.7766C88.9746 27.1577 89.0342 27.4938 89.1532 27.7882C89.2722 28.0827 89.4368 28.3114 89.6469 28.4811C89.8535 28.644 90.095 28.7306 90.3681 28.7306Z" fill="black"/>
<path d="M94.0235 23.4648C93.929 23.4648 93.8484 23.4336 93.7819 23.3678C93.7154 23.302 93.6804 23.2258 93.6804 23.1322C93.6804 23.0318 93.7154 22.9486 93.7819 22.8793C93.8484 22.81 93.929 22.7754 94.0235 22.7754C94.125 22.7754 94.2055 22.81 94.2686 22.8793C94.3316 22.9486 94.3631 23.0318 94.3631 23.1322C94.3631 23.2258 94.3316 23.3055 94.2686 23.3678C94.2055 23.4336 94.125 23.4648 94.0235 23.4648ZM93.7819 29.0807V24.4799H94.2651V29.0842H93.7819V29.0807Z" fill="black"/>
<path d="M95.9667 29.0803V24.4795H96.4499V25.1862C96.5689 24.9298 96.744 24.7324 96.9786 24.5869C97.2132 24.4414 97.4757 24.3721 97.7664 24.3721C98.2845 24.3721 98.6732 24.5349 98.9323 24.8571C99.1914 25.1828 99.3174 25.6712 99.3174 26.326V29.0837H98.8342V26.2429C98.8342 25.7717 98.7397 25.4149 98.5506 25.1793C98.3616 24.9402 98.078 24.8225 97.7068 24.8225C97.2937 24.8225 96.9821 24.9541 96.7685 25.2139C96.5549 25.4738 96.4499 25.8618 96.4499 26.3711V29.0872H95.9667V29.0803Z" fill="black"/>
<path d="M102.332 30.9996L102.09 30.6046C102.518 30.5804 102.868 30.518 103.141 30.4176C103.414 30.3171 103.617 30.1716 103.747 29.9776C103.876 29.787 103.943 29.5445 103.943 29.2535V28.429C103.659 28.9348 103.218 29.1911 102.612 29.1911C102.245 29.1911 101.926 29.0907 101.653 28.8897C101.38 28.6888 101.166 28.4082 101.016 28.0444C100.865 27.6841 100.788 27.2614 100.788 26.7764C100.788 26.2879 100.865 25.8618 101.016 25.5015C101.166 25.1412 101.383 24.864 101.663 24.6665C101.943 24.4691 102.269 24.3721 102.647 24.3721C102.917 24.3721 103.169 24.4344 103.403 24.5557C103.638 24.6804 103.817 24.8432 103.946 25.0511V24.4795H104.429V29.1842C104.429 29.4683 104.387 29.7212 104.3 29.936C104.212 30.1508 104.083 30.3344 103.911 30.4868C103.74 30.6393 103.522 30.7536 103.26 30.8368C102.994 30.9199 102.686 30.9753 102.332 30.9996ZM102.672 28.7304C102.924 28.7304 103.165 28.6507 103.393 28.4879C103.621 28.3285 103.806 28.1137 103.943 27.8504V25.6158C103.81 25.3733 103.628 25.1793 103.403 25.0372C103.176 24.8952 102.941 24.8225 102.693 24.8225C102.241 24.8225 101.894 24.9887 101.656 25.3248C101.418 25.6608 101.296 26.1424 101.296 26.7729C101.296 27.161 101.355 27.5005 101.471 27.795C101.586 28.0894 101.747 28.3181 101.954 28.4809C102.16 28.6472 102.399 28.7304 102.672 28.7304Z" fill="black"/>
<path d="M108.165 29.0807V22.7754H108.645L111.768 27.7607C111.814 27.8335 111.859 27.9063 111.905 27.9825C111.95 28.0587 111.996 28.1384 112.041 28.2181C112.041 28.1418 112.041 28.0622 112.038 27.9859C112.038 27.9097 112.034 27.8335 112.034 27.7573V22.7754H112.517V29.0807H112.048L108.918 24.0919C108.872 24.0191 108.827 23.9464 108.778 23.8667C108.732 23.787 108.687 23.7108 108.645 23.638C108.645 23.7108 108.645 23.7835 108.648 23.8632C108.648 23.9429 108.652 24.0191 108.652 24.0919V29.0807H108.165Z" fill="black"/>
<path d="M115.952 29.1877C115.546 29.1877 115.199 29.0872 114.909 28.8897C114.622 28.6888 114.401 28.4082 114.247 28.0479C114.093 27.6876 114.016 27.2614 114.016 26.7764C114.016 26.2671 114.1 25.8306 114.264 25.4738C114.429 25.1135 114.657 24.8432 114.947 24.6527C115.238 24.4656 115.57 24.3721 115.952 24.3721C116.288 24.3721 116.589 24.4552 116.855 24.618C117.121 24.7809 117.332 25.0372 117.482 25.3802C117.636 25.7232 117.713 26.1667 117.713 26.7071C117.713 26.7418 117.713 26.7833 117.71 26.8249C117.71 26.8665 117.706 26.9115 117.703 26.9566H114.52C114.545 27.3065 114.608 27.6183 114.713 27.8885C114.818 28.1587 114.972 28.3701 115.178 28.5225C115.381 28.6749 115.647 28.7511 115.973 28.7511C116.159 28.7511 116.341 28.72 116.526 28.6576C116.712 28.5952 116.883 28.4948 117.044 28.3562L117.328 28.6819C117.16 28.8308 116.96 28.9556 116.719 29.0526C116.477 29.1496 116.229 29.1877 115.952 29.1877ZM114.524 26.5235H117.219C117.219 26.2117 117.174 25.9241 117.086 25.6643C116.999 25.4045 116.859 25.1931 116.673 25.0372C116.488 24.8813 116.246 24.8017 115.956 24.8017C115.567 24.8017 115.241 24.9368 114.972 25.2105C114.702 25.4807 114.555 25.9207 114.524 26.5235Z" fill="black"/>
<path d="M120.101 29.1879C119.807 29.1879 119.583 29.0978 119.429 28.9176C119.275 28.7375 119.198 28.4742 119.198 28.1243V24.9058H118.42V24.4762H119.198V22.8098L119.681 22.5742V24.4762H120.854V24.9058H119.681V28.01C119.681 28.2698 119.723 28.4534 119.807 28.5677C119.891 28.6821 120.028 28.7375 120.22 28.7375C120.444 28.7375 120.675 28.6613 120.906 28.5123L120.85 28.9973C120.745 29.0562 120.626 29.1047 120.493 29.1394C120.36 29.174 120.231 29.1879 120.101 29.1879Z" fill="black"/>
<path d="M122.776 29.0803L121.593 24.4761H122.072L122.906 27.8712C122.923 27.9475 122.941 28.0237 122.962 28.1034C122.983 28.183 122.997 28.2627 123.011 28.3389C123.032 28.2593 123.053 28.1796 123.077 28.0999C123.102 28.0237 123.123 27.944 123.144 27.8712L124.173 24.4761H124.551L125.584 27.8712C125.609 27.9509 125.63 28.0271 125.651 28.1068C125.672 28.183 125.693 28.2662 125.714 28.3459C125.731 28.2662 125.749 28.19 125.766 28.1103C125.784 28.0306 125.801 27.9509 125.819 27.8747L126.648 24.4795H127.132L125.945 29.0838H125.549L124.548 25.9173C124.516 25.8203 124.488 25.7198 124.453 25.6124C124.422 25.505 124.39 25.4011 124.359 25.3006C124.331 25.4011 124.303 25.5085 124.271 25.6124C124.24 25.7164 124.208 25.8203 124.177 25.9173L123.175 29.0838H122.776V29.0803Z" fill="black"/>
<path d="M129.88 29.1878C129.288 29.1878 128.823 28.973 128.48 28.5399C128.14 28.1103 127.968 27.5214 127.968 26.78C127.968 26.288 128.045 25.8619 128.203 25.4981C128.361 25.1378 128.581 24.8572 128.865 24.6597C129.148 24.4622 129.488 24.3652 129.88 24.3652C130.276 24.3652 130.615 24.4622 130.899 24.6562C131.183 24.8503 131.403 25.1274 131.557 25.4877C131.711 25.848 131.788 26.2776 131.788 26.773C131.788 27.265 131.711 27.6911 131.554 28.0549C131.396 28.4152 131.176 28.6958 130.892 28.8933C130.612 29.0908 130.272 29.1878 129.88 29.1878ZM129.88 28.7305C130.325 28.7305 130.668 28.5572 130.917 28.2143C131.165 27.8713 131.288 27.3897 131.288 26.7765C131.288 26.1564 131.165 25.6748 130.92 25.3353C130.675 24.9958 130.328 24.826 129.884 24.826C129.432 24.826 129.085 24.9958 128.84 25.3318C128.599 25.6679 128.476 26.1529 128.476 26.7834C128.476 27.4036 128.599 27.8817 128.844 28.2212C129.089 28.5607 129.435 28.7305 129.88 28.7305Z" fill="black"/>
<path d="M133.14 29.0803V24.4795H133.623V25.3352C133.749 25.0303 133.921 24.7913 134.141 24.625C134.362 24.4552 134.614 24.3721 134.901 24.3721C135.181 24.3721 135.398 24.4379 135.556 24.573L135.479 25.0372C135.395 24.9784 135.297 24.9368 135.188 24.9125C135.08 24.8883 134.968 24.871 134.848 24.871C134.607 24.871 134.393 24.9402 134.208 25.0788C134.022 25.2174 133.882 25.4114 133.777 25.6609C133.676 25.9103 133.623 26.1978 133.623 26.52V29.0837H133.14V29.0803Z" fill="black"/>
<path d="M136.491 29.0804V22.8063L136.974 22.5776V26.4405L138.798 24.4762H139.386L138.203 25.7338L139.946 29.0804H139.411L137.863 26.0941L136.974 27.0225V29.0804H136.491Z" fill="black"/>
</g>
<defs>
<clipPath id="clip0_43_280">
<rect width="169" height="31" fill="white"/>
</clipPath>
</defs>
</svg>
