<svg width="170" height="31" viewBox="0 0 170 31" fill="none" xmlns="http://www.w3.org/2000/svg">
<g clip-path="url(#clip0_43_76)">
<path d="M0 10.1994H1.84905C1.95471 11.9385 3.01131 13.0194 5.29709 13.0194C7.41734 13.0194 8.64299 12.2018 8.64299 10.5666C8.64299 9.17736 7.83293 8.56415 6.25155 8.23502L4.13131 7.78464C1.82792 7.29615 0.500124 6.11131 0.500124 3.92523C0.500124 1.61444 2.30691 0 5.32174 0C8.23092 0 10.2666 1.71837 10.2878 4.25089H8.43872C8.35419 2.69882 7.3152 1.67333 5.27948 1.67333C3.5537 1.67333 2.37031 2.4078 2.37031 3.92177C2.37031 5.08583 3.09936 5.69904 4.63495 6.04895L6.6108 6.49933C9.10437 7.07096 10.5378 8.2177 10.5378 10.5666C10.5378 13.1234 8.45985 14.6755 5.30061 14.6755C1.76805 14.6789 0.084528 12.8982 0 10.1994Z" fill="black"/>
<path d="M23.7524 0.183594H32.6877V1.86039H25.6226V6.27758H32.0432V7.95438H25.6226V12.8185H32.6877V14.4953H23.7524V0.183594Z" fill="black"/>
<path d="M46.0079 0.183594H51.5551C54.2564 0.183594 55.9611 1.59363 55.9611 4.02568C55.9611 6.7245 54.2564 7.9717 51.5551 7.9717H48.417L56.7289 14.4918H53.7563L47.8323 9.72818V14.4918H46.0044V0.183594H46.0079ZM51.4529 6.2949C53.0132 6.2949 54.0733 5.76484 54.0733 4.04647C54.0733 2.36967 53.0132 1.81882 51.4529 1.81882H47.8358V6.2949H51.4529Z" fill="black"/>
<path d="M69.5278 0.183594H78.4632V1.86039H71.398V6.27758H77.8186V7.95438H71.398V12.8185H78.4632V14.4953H69.5278V0.183594Z" fill="black"/>
<path d="M91.7834 0.183594H95.2948L100.927 14.083V0.183594H102.754V14.4918H99.1162L93.6113 0.696334V14.4953H91.7834V0.183594Z" fill="black"/>
<path d="M116.282 12.7977H119.315V1.88118H116.282V0.183594H124.221V1.88118H121.185V12.7977H124.221V14.4953H116.282V12.7977Z" fill="black"/>
<path d="M140.679 1.88118H136.397V0.183594H146.829V1.88118H142.546V14.4953H140.676V1.88118H140.679Z" fill="black"/>
<path d="M163.164 7.95092H162.456L158.177 0.183594H160.212L164.118 7.44164L168.003 0.183594H170L165.738 7.95092H165.03V14.4918H163.16V7.95092H163.164Z" fill="black"/>
<path d="M31.6945 29.1881C31.2402 29.1881 30.8492 29.098 30.5287 28.9144C30.2047 28.7307 29.9441 28.4848 29.7398 28.173C29.539 27.8612 29.3911 27.5113 29.2995 27.1232C29.208 26.7352 29.1587 26.3368 29.1587 25.9315C29.1587 25.5192 29.208 25.1208 29.3066 24.7328C29.4052 24.3447 29.5602 23.9948 29.7644 23.6865C29.9687 23.3782 30.2329 23.1322 30.5534 22.9486C30.8739 22.7649 31.2507 22.6749 31.691 22.6749C32.0643 22.6749 32.3742 22.7268 32.6173 22.8273C32.8638 22.9278 33.0646 23.0629 33.2195 23.2223C33.3745 23.3851 33.5013 23.5548 33.5999 23.7315L33.1737 23.9567C33.0822 23.8112 32.9765 23.6761 32.8532 23.5514C32.73 23.4267 32.5785 23.3227 32.3919 23.2465C32.2052 23.1703 31.9727 23.1322 31.691 23.1322C31.3353 23.1322 31.0324 23.2119 30.7788 23.3712C30.5252 23.5306 30.3139 23.7454 30.1519 24.0121C29.9899 24.2789 29.8666 24.5803 29.7891 24.9129C29.7116 25.2455 29.6729 25.5885 29.6729 25.9349C29.6729 26.2848 29.7116 26.6278 29.7856 26.9639C29.8595 27.2999 29.9793 27.5979 30.1413 27.8646C30.3033 28.1314 30.5111 28.3427 30.7682 28.4986C31.0253 28.6545 31.3353 28.7342 31.698 28.7342C32.1031 28.7342 32.4306 28.6441 32.6771 28.464C32.9237 28.2838 33.1103 28.076 33.2371 27.8369L33.6844 28.0032C33.5858 28.2111 33.4485 28.4051 33.2759 28.5852C33.0998 28.7654 32.8814 28.9144 32.6243 29.0252C32.3602 29.1326 32.0502 29.1881 31.6945 29.1881Z" fill="black"/>
<path d="M36.7803 29.1881C36.1851 29.1881 35.7166 28.9733 35.3715 28.5402C35.0263 28.1106 34.8573 27.5217 34.8573 26.7803C34.8573 26.2883 34.9348 25.8622 35.0932 25.4984C35.2517 25.1381 35.4736 24.8575 35.7589 24.66C36.0442 24.4625 36.3858 24.3655 36.7803 24.3655C37.1783 24.3655 37.5199 24.4625 37.8052 24.6566C38.0905 24.8506 38.3124 25.1277 38.4708 25.488C38.6293 25.8483 38.7033 26.2779 38.7033 26.7733C38.7033 27.2653 38.6258 27.6914 38.4673 28.0552C38.3088 28.4155 38.0869 28.6961 37.8017 28.8936C37.5164 29.0911 37.1747 29.1881 36.7803 29.1881ZM36.7803 28.7308C37.2276 28.7308 37.5727 28.5575 37.8228 28.2146C38.0729 27.8716 38.1961 27.39 38.1961 26.7768C38.1961 26.1567 38.0729 25.6751 37.8263 25.3356C37.5798 24.9961 37.2311 24.8263 36.7838 24.8263C36.3295 24.8263 35.9808 24.9961 35.7342 25.3321C35.4912 25.6682 35.368 26.1532 35.368 26.7837C35.368 27.4039 35.4912 27.882 35.7378 28.2215C35.9843 28.561 36.333 28.7308 36.7803 28.7308Z" fill="black"/>
<path d="M40.0593 29.0807V24.4799H40.5453V25.1277C40.6721 24.8852 40.8482 24.6981 41.0736 24.5665C41.299 24.4348 41.5491 24.369 41.8273 24.369C42.1478 24.369 42.419 24.4522 42.6409 24.6219C42.8628 24.7917 43.0177 25.0307 43.1058 25.346C43.2291 25.0411 43.4122 24.8021 43.6588 24.6289C43.9053 24.4556 44.1871 24.369 44.497 24.369C44.9654 24.369 45.3352 24.5111 45.6099 24.7986C45.8847 25.0862 46.022 25.4742 46.022 25.9661V29.0772H45.536V26.219C45.536 25.7583 45.4444 25.4084 45.2648 25.1693C45.0816 24.9337 44.8104 24.8125 44.4477 24.8125C44.2223 24.8125 44.0215 24.8714 43.8454 24.9926C43.6693 25.1139 43.532 25.2802 43.4333 25.4915C43.3347 25.7028 43.2854 25.9488 43.2854 26.226V29.0772H42.7994V26.219C42.7994 25.7548 42.7078 25.4014 42.5282 25.1658C42.3486 24.9303 42.0809 24.8125 41.7217 24.8125C41.3518 24.8125 41.063 24.9407 40.8552 25.1936C40.6474 25.4465 40.5453 25.8033 40.5453 26.2572V29.0772H40.0593V29.0807Z" fill="black"/>
<path d="M47.776 29.0807V24.4799H48.262V25.1277C48.3888 24.8852 48.5649 24.6981 48.7903 24.5665C49.0157 24.4348 49.2658 24.369 49.544 24.369C49.8645 24.369 50.1357 24.4522 50.3576 24.6219C50.5795 24.7917 50.7345 25.0307 50.8225 25.346C50.9458 25.0411 51.1289 24.8021 51.3755 24.6289C51.622 24.4556 51.9038 24.369 52.2137 24.369C52.6821 24.369 53.0519 24.5111 53.3267 24.7986C53.6014 25.0862 53.7387 25.4742 53.7387 25.9661V29.0772H53.2527V26.219C53.2527 25.7583 53.1611 25.4084 52.9815 25.1693C52.7983 24.9337 52.5272 24.8125 52.1644 24.8125C51.939 24.8125 51.7382 24.8714 51.5621 24.9926C51.386 25.1139 51.2487 25.2802 51.15 25.4915C51.0514 25.7028 51.0021 25.9488 51.0021 26.226V29.0772H50.5161V26.219C50.5161 25.7548 50.4245 25.4014 50.2449 25.1658C50.0653 24.9303 49.7976 24.8125 49.4384 24.8125C49.0685 24.8125 48.7797 24.9407 48.5719 25.1936C48.3641 25.4465 48.262 25.8033 48.262 26.2572V29.0772H47.776V29.0807Z" fill="black"/>
<path d="M56.912 29.188C56.3837 29.188 55.9893 29.0287 55.7286 28.703C55.468 28.3808 55.3377 27.8923 55.3377 27.2376V24.4764H55.8237V27.3242C55.8237 27.7953 55.9188 28.1522 56.109 28.3912C56.2992 28.6303 56.581 28.7481 56.9614 28.7481C57.3769 28.7481 57.6904 28.6164 57.9053 28.3531C58.1201 28.0898 58.2258 27.7018 58.2258 27.196V24.4798H58.7118V29.0841H58.2258V28.4224C58.0884 28.6718 57.9088 28.8624 57.6869 28.994C57.465 29.1222 57.2079 29.188 56.912 29.188Z" fill="black"/>
<path d="M60.4305 29.0806V24.4798H60.9165V25.1866C61.0363 24.9302 61.2124 24.7327 61.4484 24.5872C61.6843 24.4417 61.9485 24.3724 62.2408 24.3724C62.7621 24.3724 63.153 24.5353 63.4136 24.8575C63.6743 25.1831 63.8011 25.6716 63.8011 26.3264V29.0841H63.315V26.2432C63.315 25.7721 63.2199 25.4152 63.0298 25.1797C62.8396 24.9406 62.5543 24.8228 62.1809 24.8228C61.7654 24.8228 61.4519 24.9545 61.237 25.2143C61.0222 25.4741 60.9165 25.8622 60.9165 26.3714V29.0876H60.4305V29.0806Z" fill="black"/>
<path d="M65.7029 23.4648C65.6078 23.4648 65.5268 23.4336 65.4599 23.3678C65.393 23.3019 65.3578 23.2257 65.3578 23.1322C65.3578 23.0317 65.393 22.9486 65.4599 22.8793C65.5268 22.81 65.6078 22.7753 65.7029 22.7753C65.8051 22.7753 65.8861 22.81 65.9495 22.8793C66.0129 22.9486 66.0446 23.0317 66.0446 23.1322C66.0446 23.2257 66.0129 23.3054 65.9495 23.3678C65.8861 23.4336 65.8051 23.4648 65.7029 23.4648ZM65.4599 29.0807V24.4798H65.946V29.0841H65.4599V29.0807Z" fill="black"/>
<path d="M68.8129 29.1881C68.517 29.1881 68.2916 29.098 68.1367 28.9178C67.9817 28.7377 67.9042 28.4744 67.9042 28.1245V24.906H67.1223V24.4764H67.9042V22.81L68.3902 22.5744V24.4764H69.5701V24.906H68.3902V28.0101C68.3902 28.27 68.4325 28.4536 68.517 28.5679C68.6016 28.6822 68.7389 28.7377 68.9326 28.7377C69.158 28.7377 69.3905 28.6615 69.6229 28.5125L69.5666 28.9975C69.4609 29.0564 69.3412 29.1049 69.2073 29.1396C69.0735 29.1742 68.9432 29.1881 68.8129 29.1881Z" fill="black"/>
<path d="M71.2959 30.8302L72.0003 28.9698L70.2957 24.4799H70.7817L72.0743 27.9443C72.106 28.024 72.1341 28.0968 72.1588 28.173C72.1835 28.2457 72.2116 28.3219 72.2328 28.4016C72.2609 28.3219 72.2856 28.2492 72.3102 28.173C72.3349 28.1002 72.3631 28.024 72.3912 27.9443L73.6873 24.4799H74.1769L71.7819 30.8302H71.2959Z" fill="black"/>
<path d="M78.4385 29.0807V23.2396H76.6705V22.7753H80.6961V23.2396H78.9246V29.0807H78.4385Z" fill="black"/>
<path d="M81.2033 29.0806V24.4798H81.6893V25.3356C81.8126 25.0307 81.9887 24.7916 82.2106 24.6253C82.4325 24.459 82.686 24.3724 82.9713 24.3724C83.2531 24.3724 83.4714 24.4383 83.6299 24.5734L83.5525 25.0376C83.4679 24.9787 83.3693 24.9371 83.2601 24.9129C83.1509 24.8886 83.0382 24.8713 82.9185 24.8713C82.6755 24.8713 82.4606 24.9406 82.274 25.0792C82.0908 25.2178 81.9464 25.4118 81.8408 25.6612C81.7386 25.9107 81.6858 26.1982 81.6858 26.5204V29.0841H81.2033V29.0806Z" fill="black"/>
<path d="M85.7291 29.1881C85.2465 29.1881 84.8697 29.053 84.5985 28.7862C84.3273 28.516 84.1899 28.1487 84.1899 27.6776C84.1899 27.3727 84.2569 27.1129 84.3907 26.8911C84.5245 26.6694 84.7147 26.4997 84.9613 26.3784C85.2078 26.2572 85.5001 26.1948 85.8347 26.1948C86.0637 26.1948 86.2891 26.226 86.5074 26.2918C86.7258 26.3576 86.9441 26.4546 87.1519 26.5897V26.0216C87.1519 25.6058 87.0639 25.2975 86.8843 25.0966C86.7047 24.8956 86.4299 24.7951 86.0531 24.7951C85.8347 24.7951 85.6058 24.8333 85.3628 24.9129C85.1198 24.9926 84.8838 25.1 84.6548 25.2421L84.514 24.8367C84.7676 24.6878 85.0317 24.57 85.3064 24.4903C85.5811 24.4106 85.8453 24.369 86.1024 24.369C86.5955 24.369 86.9723 24.5007 87.233 24.764C87.4936 25.0273 87.6204 25.4118 87.6204 25.9142V29.0807H87.1484V28.4605C86.9653 28.6927 86.7469 28.8728 86.4933 28.9975C86.2397 29.1223 85.9932 29.1881 85.7291 29.1881ZM85.7678 28.762C86.0214 28.762 86.2644 28.6927 86.5039 28.5576C86.7399 28.4224 86.9582 28.2215 87.1625 27.9547V27.0228C86.9653 26.8981 86.754 26.7976 86.5321 26.7283C86.3102 26.659 86.0918 26.6244 85.8805 26.6244C85.5213 26.6244 85.2289 26.7214 85.0106 26.9119C84.7922 27.1025 84.6795 27.3589 84.6795 27.681C84.6795 28.0102 84.7781 28.2735 84.9789 28.4709C85.1726 28.665 85.4367 28.762 85.7678 28.762Z" fill="black"/>
<path d="M90.8184 29.1881C90.2584 29.1881 89.8146 28.9698 89.487 28.5367C89.156 28.1002 88.994 27.5147 88.994 26.7768C88.994 26.2744 89.0679 25.8449 89.2194 25.4845C89.3708 25.1242 89.5821 24.8506 89.8639 24.6565C90.1457 24.4625 90.4802 24.369 90.8747 24.369C91.3889 24.369 91.8151 24.5907 92.1532 25.0342V22.8031L92.6392 22.5744V29.0772H92.1532V28.5194C91.8045 28.9663 91.3607 29.1881 90.8184 29.1881ZM90.9029 28.7307C91.1424 28.7307 91.3713 28.6545 91.6002 28.5021C91.8256 28.3497 92.0088 28.1487 92.1462 27.8923V25.6404C91.9912 25.3875 91.801 25.1901 91.5826 25.0446C91.3643 24.8991 91.1353 24.8263 90.9064 24.8263C90.4591 24.8263 90.1104 24.9961 89.8674 25.3321C89.6244 25.6682 89.5011 26.1497 89.5011 26.7768C89.5011 27.1579 89.561 27.4939 89.6808 27.7884C89.8005 28.0829 89.966 28.3115 90.1774 28.4813C90.3852 28.6441 90.6282 28.7307 90.9029 28.7307Z" fill="black"/>
<path d="M94.5798 23.4648C94.4847 23.4648 94.4037 23.4336 94.3368 23.3678C94.2699 23.3019 94.2347 23.2257 94.2347 23.1322C94.2347 23.0317 94.2699 22.9486 94.3368 22.8793C94.4037 22.81 94.4847 22.7753 94.5798 22.7753C94.682 22.7753 94.763 22.81 94.8264 22.8793C94.8898 22.9486 94.9215 23.0317 94.9215 23.1322C94.9215 23.2257 94.8898 23.3054 94.8264 23.3678C94.763 23.4336 94.682 23.4648 94.5798 23.4648ZM94.3368 29.0807V24.4798H94.8229V29.0841H94.3368V29.0807Z" fill="black"/>
<path d="M96.5346 29.0806V24.4798H97.0206V25.1866C97.1404 24.9302 97.3165 24.7327 97.5524 24.5872C97.7884 24.4417 98.0526 24.3724 98.3449 24.3724C98.8661 24.3724 99.2571 24.5353 99.5177 24.8575C99.7783 25.1831 99.9051 25.6716 99.9051 26.3264V29.0841H99.4191V26.2432C99.4191 25.7721 99.324 25.4152 99.1338 25.1797C98.9436 24.9406 98.6583 24.8228 98.285 24.8228C97.8694 24.8228 97.556 24.9545 97.3411 25.2143C97.1263 25.4741 97.0206 25.8622 97.0206 26.3714V29.0876H96.5346V29.0806Z" fill="black"/>
<path d="M102.938 31L102.695 30.605C103.124 30.5807 103.476 30.5184 103.751 30.4179C104.026 30.3175 104.23 30.1719 104.36 29.9779C104.491 29.7874 104.558 29.5449 104.558 29.2539V28.4293C104.272 28.9351 103.829 29.1915 103.219 29.1915C102.85 29.1915 102.529 29.091 102.254 28.8901C101.98 28.6892 101.765 28.4085 101.613 28.0448C101.462 27.6845 101.384 27.2618 101.384 26.7768C101.384 26.2883 101.462 25.8622 101.613 25.5019C101.765 25.1415 101.983 24.8644 102.265 24.6669C102.547 24.4694 102.874 24.3724 103.255 24.3724C103.526 24.3724 103.779 24.4348 104.015 24.5561C104.251 24.6808 104.431 24.8436 104.561 25.0515V24.4798H105.047V29.1846C105.047 29.4687 105.005 29.7216 104.917 29.9364C104.829 30.1512 104.699 30.3348 104.526 30.4872C104.353 30.6396 104.135 30.754 103.871 30.8371C103.603 30.9203 103.293 30.9757 102.938 31ZM103.279 28.7307C103.533 28.7307 103.776 28.651 104.005 28.4882C104.234 28.3289 104.42 28.1141 104.558 27.8508V25.6162C104.424 25.3737 104.241 25.1797 104.015 25.0376C103.786 24.8956 103.55 24.8228 103.3 24.8228C102.846 24.8228 102.497 24.9891 102.258 25.3252C102.018 25.6612 101.895 26.1428 101.895 26.7733C101.895 27.1613 101.955 27.5008 102.071 27.7953C102.187 28.0898 102.349 28.3185 102.557 28.4813C102.765 28.6476 103.004 28.7307 103.279 28.7307Z" fill="black"/>
<path d="M108.805 29.0807V22.7753H109.288L112.429 27.7607C112.475 27.8334 112.521 27.9062 112.567 27.9824C112.612 28.0586 112.658 28.1383 112.704 28.218C112.704 28.1418 112.704 28.0621 112.701 27.9859C112.701 27.9097 112.697 27.8334 112.697 27.7572V22.7753H113.183V29.0807H112.711L109.562 24.0918C109.517 24.0191 109.471 23.9463 109.422 23.8666C109.376 23.787 109.33 23.7107 109.288 23.638C109.288 23.7107 109.288 23.7835 109.291 23.8632C109.291 23.9429 109.295 24.0191 109.295 24.0918V29.0807H108.805Z" fill="black"/>
<path d="M116.638 29.188C116.23 29.188 115.881 29.0876 115.589 28.8901C115.3 28.6892 115.078 28.4085 114.923 28.0482C114.768 27.6879 114.69 27.2618 114.69 26.7768C114.69 26.2675 114.775 25.831 114.941 25.4741C115.106 25.1138 115.335 24.8436 115.627 24.6531C115.92 24.466 116.254 24.3724 116.638 24.3724C116.976 24.3724 117.279 24.4556 117.547 24.6184C117.815 24.7812 118.026 25.0376 118.177 25.3806C118.332 25.7236 118.41 26.167 118.41 26.7075C118.41 26.7421 118.41 26.7837 118.406 26.8253C118.406 26.8668 118.403 26.9119 118.399 26.9569H115.198C115.222 27.3068 115.286 27.6186 115.391 27.8889C115.497 28.1591 115.652 28.3704 115.86 28.5229C116.064 28.6753 116.332 28.7515 116.659 28.7515C116.846 28.7515 117.029 28.7203 117.216 28.658C117.402 28.5956 117.575 28.4951 117.737 28.3566L118.022 28.6822C117.853 28.8312 117.652 28.9559 117.409 29.0529C117.166 29.1499 116.916 29.188 116.638 29.188ZM115.201 26.5239H117.913C117.913 26.2121 117.867 25.9245 117.779 25.6647C117.691 25.4048 117.55 25.1935 117.364 25.0376C117.177 24.8817 116.934 24.802 116.642 24.802C116.251 24.802 115.923 24.9371 115.652 25.2108C115.381 25.4811 115.233 25.9211 115.201 26.5239Z" fill="black"/>
<path d="M120.812 29.1881C120.516 29.1881 120.29 29.098 120.135 28.9178C119.981 28.7377 119.903 28.4744 119.903 28.1245V24.906H119.121V24.4764H119.903V22.81L120.389 22.5744V24.4764H121.569V24.906H120.389V28.0101C120.389 28.27 120.431 28.4536 120.516 28.5679C120.6 28.6822 120.738 28.7377 120.931 28.7377C121.157 28.7377 121.389 28.6615 121.622 28.5125L121.565 28.9975C121.46 29.0564 121.34 29.1049 121.206 29.1396C121.072 29.1742 120.942 29.1881 120.812 29.1881Z" fill="black"/>
<path d="M123.503 29.0806L122.312 24.4764H122.795L123.633 27.8715C123.65 27.9478 123.668 28.024 123.689 28.1037C123.71 28.1834 123.724 28.263 123.738 28.3393C123.76 28.2596 123.781 28.1799 123.805 28.1002C123.83 28.024 123.851 27.9443 123.872 27.8715L124.908 24.4764H125.288L126.327 27.8715C126.352 27.9512 126.373 28.0275 126.394 28.1071C126.415 28.1834 126.436 28.2665 126.457 28.3462C126.475 28.2665 126.493 28.1903 126.51 28.1106C126.528 28.0309 126.546 27.9512 126.563 27.875L127.398 24.4798H127.884L126.69 29.0841H126.292L125.285 25.9176C125.253 25.8206 125.225 25.7201 125.19 25.6127C125.158 25.5053 125.126 25.4014 125.094 25.3009C125.066 25.4014 125.038 25.5088 125.006 25.6127C124.975 25.7167 124.943 25.8206 124.911 25.9176L123.904 29.0841H123.503V29.0806Z" fill="black"/>
<path d="M130.649 29.1881C130.053 29.1881 129.585 28.9733 129.24 28.5402C128.898 28.1106 128.726 27.5217 128.726 26.7803C128.726 26.2883 128.803 25.8622 128.962 25.4984C129.12 25.1381 129.342 24.8575 129.627 24.66C129.913 24.4625 130.254 24.3655 130.649 24.3655C131.047 24.3655 131.388 24.4625 131.674 24.6566C131.959 24.8506 132.181 25.1277 132.336 25.488C132.491 25.8483 132.568 26.2779 132.568 26.7733C132.568 27.2653 132.491 27.6914 132.332 28.0552C132.174 28.4155 131.952 28.6961 131.667 28.8936C131.385 29.0911 131.043 29.1881 130.649 29.1881ZM130.649 28.7308C131.096 28.7308 131.441 28.5575 131.691 28.2146C131.941 27.8716 132.065 27.39 132.065 26.7768C132.065 26.1567 131.941 25.6751 131.695 25.3356C131.448 24.9961 131.099 24.8263 130.652 24.8263C130.198 24.8263 129.849 24.9961 129.603 25.3321C129.36 25.6682 129.236 26.1532 129.236 26.7837C129.236 27.4039 129.36 27.882 129.606 28.2215C129.853 28.561 130.201 28.7308 130.649 28.7308Z" fill="black"/>
<path d="M133.928 29.0806V24.4798H134.414V25.3356C134.54 25.0307 134.713 24.7916 134.935 24.6253C135.157 24.4556 135.41 24.3724 135.699 24.3724C135.981 24.3724 136.199 24.4383 136.358 24.5734L136.28 25.0376C136.196 24.9787 136.097 24.9371 135.988 24.9129C135.879 24.8886 135.766 24.8713 135.646 24.8713C135.403 24.8713 135.189 24.9406 135.002 25.0792C134.815 25.2178 134.674 25.4118 134.569 25.6612C134.467 25.9107 134.414 26.1982 134.414 26.5204V29.0841H133.928V29.0806Z" fill="black"/>
<path d="M137.298 29.0807V22.8065L137.784 22.5779V26.4408L139.619 24.4764H140.211L139.02 25.734L140.774 29.0807H140.236L138.679 26.0943L137.784 27.0228V29.0807H137.298Z" fill="black"/>
</g>
<defs>
<clipPath id="clip0_43_76">
<rect width="170" height="31" fill="white"/>
</clipPath>
</defs>
</svg>
